<svg id="svg" version="1.1" xmlns="http://www.w3.org/2000/svg" style="display: block;" viewBox="0 0 2842 1913"><path d="M0 0 C937.86 0 1875.72 0 2842 0 C2842 631.29 2842 1262.58 2842 1913 C1904.14 1913 966.28 1913 0 1913 C0 1281.71 0 650.42 0 0 Z " transform="translate(0,0)" style="fill: #000000;"/><path d="M0 0 C14.19 0 28.38 0 43 0 C46.24145773 15.42083304 49.38006955 30.85486243 52.3871994 46.32291985 C53.06658367 49.81618191 53.7483424 53.30897348 54.4307251 56.801651 C56.36625508 66.70963078 58.29895243 76.61815911 60.22705078 86.52758789 C61.41608965 92.63775868 62.60883385 98.74719615 63.80399323 104.85617256 C64.25676809 107.17445739 64.70810301 109.49302392 65.15798187 111.81187248 C65.78118804 115.02363174 66.40907448 118.23444182 67.03808594 121.44506836 C67.31545845 122.88391136 67.31545845 122.88391136 67.59843445 124.3518219 C67.76928055 125.21882721 67.94012665 126.08583252 68.1161499 126.97911072 C68.33731791 128.11455275 68.33731791 128.11455275 68.56295395 129.27293301 C68.84787065 131.01854679 68.84787065 131.01854679 70 132 C78.25 88.44 86.5 44.88 95 0 C108.86 0 122.72 0 137 0 C137 64.35 137 128.7 137 195 C127.1 195 117.2 195 107 195 C106.67 158.04 106.34 121.08 106 83 C104.35128906 91.00121094 102.70257812 99.00242187 101.00390625 107.24609375 C99.82813955 112.94246735 98.65189523 118.63874067 97.47495747 124.33487225 C95.94850894 131.72288536 94.4232075 139.11112939 92.90209961 146.50024414 C91.56986418 152.97184942 90.23369156 159.44263346 88.8950634 165.91292 C88.38378058 168.38751093 87.87384074 170.86237971 87.36523628 173.33752251 C86.65527784 176.79142355 85.94064615 180.24432556 85.22485352 183.69702148 C84.90764595 185.24852654 84.90764595 185.24852654 84.58403015 186.83137512 C84.38912994 187.76672089 84.19422974 188.70206665 83.99342346 189.66575623 C83.74039129 190.89220179 83.74039129 190.89220179 83.48224735 192.14342403 C83 194 83 194 82 195 C80.14630389 195.08737645 78.28932459 195.10698153 76.43359375 195.09765625 C75.30888672 195.09443359 74.18417969 195.09121094 73.02539062 195.08789062 C71.84138672 195.07951172 70.65738281 195.07113281 69.4375 195.0625 C68.24962891 195.05798828 67.06175781 195.05347656 65.83789062 195.04882812 C62.89187774 195.03699675 59.94596319 195.02051287 57 195 C54.34718868 183.77605776 51.69541105 172.55187183 49.04488087 161.32739067 C47.8135311 156.11300158 46.5818519 150.89869081 45.34936523 145.68457031 C44.15549008 140.63374029 42.9625515 135.58268984 41.77020836 130.53149796 C41.31971918 128.62375457 40.86891681 126.7160851 40.41776466 124.80849838 C40.09626222 123.44897238 40.09626222 123.44897238 39.76826477 122.0619812 C39.5826061 121.27732924 39.39694742 120.49267727 39.20566273 119.68424797 C36.4078932 107.80165813 33.70581132 95.90556981 31 84 C30.67 120.63 30.34 157.26 30 195 C20.1 195 10.2 195 0 195 C0 130.65 0 66.3 0 0 Z " transform="translate(1438,891)" style="fill: #FFFFFF;"/><path d="M0 0 C68.03184713 0 68.03184713 0 82.98828125 13.83984375 C93.64381109 24.99734715 96.47912088 40.47441732 96.35571289 55.39428711 C95.95673795 69.09827263 91.77600497 80.33118807 82 90 C80.68578461 91.02499545 79.35722725 92.03267794 78 93 C78.49628906 93.32871094 78.99257812 93.65742187 79.50390625 93.99609375 C90.36774065 101.60283928 95.79687393 111.40722192 98.75 124.265625 C101.97000822 142.78067224 100.3485218 161.9810553 90 178 C83.48587694 186.68981426 74.17949441 191.6068352 64 195 C42.88 195 21.76 195 0 195 C0 130.65 0 66.3 0 0 Z " transform="translate(2116,891)" style="fill: #FFFFFF;"/><path d="M0 0 C66.34572491 0 66.34572491 0 80.2265625 13.1015625 C90.63107396 24.12956528 93.30967576 35.82515169 93.2746582 50.58740234 C93.27976913 51.71221512 93.28488007 52.83702789 93.29014587 53.9959259 C93.30397954 57.69265144 93.30308976 61.38918924 93.30078125 65.0859375 C93.30467157 67.66989205 93.30900693 70.25384597 93.31376648 72.83779907 C93.32121531 78.2460566 93.32108653 83.65424213 93.31567383 89.0625 C93.30963762 95.28881327 93.32194416 101.51490035 93.3432439 107.74117506 C93.36307112 113.76131073 93.36602337 119.78132907 93.36250877 125.80150223 C93.36302033 128.34905147 93.36822678 130.89660446 93.37832069 133.44413376 C93.3907311 137.01419992 93.38386536 140.58374997 93.37231445 144.15380859 C93.37995819 145.19415756 93.38760193 146.23450653 93.39547729 147.30638123 C93.29570814 161.33902415 88.51751621 172.78512029 79.04296875 183.1171875 C57.34519243 203.11399092 28.69336603 195 0 195 C0 130.65 0 66.3 0 0 Z " transform="translate(1731,891)" style="fill: #FFFFFF;"/><path d="M0 0 C66.34572491 0 66.34572491 0 80.2265625 13.1015625 C90.63107396 24.12956528 93.30967576 35.82515169 93.2746582 50.58740234 C93.27976913 51.71221512 93.28488007 52.83702789 93.29014587 53.9959259 C93.30397954 57.69265144 93.30308976 61.38918924 93.30078125 65.0859375 C93.30467157 67.66989205 93.30900693 70.25384597 93.31376648 72.83779907 C93.32121531 78.2460566 93.32108653 83.65424213 93.31567383 89.0625 C93.30963762 95.28881327 93.32194416 101.51490035 93.3432439 107.74117506 C93.36307112 113.76131073 93.36602337 119.78132907 93.36250877 125.80150223 C93.36302033 128.34905147 93.36822678 130.89660446 93.37832069 133.44413376 C93.3907311 137.01419992 93.38386536 140.58374997 93.37231445 144.15380859 C93.37995819 145.19415756 93.38760193 146.23450653 93.39547729 147.30638123 C93.29570814 161.33902415 88.51751621 172.78512029 79.04296875 183.1171875 C57.34519243 203.11399092 28.69336603 195 0 195 C0 130.65 0 66.3 0 0 Z " transform="translate(506,891)" style="fill: #FFFFFF;"/><path d="M0 0 C3.39496314 2.41205197 6.32648987 4.96144823 9.125 8.0625 C9.61742187 8.57425781 10.10984375 9.08601562 10.6171875 9.61328125 C19.86193077 19.61692135 21.43033844 31.6717065 21.3996582 44.81762695 C21.40476913 45.96034058 21.40988007 47.1030542 21.41514587 48.28039551 C21.42898302 52.03724486 21.42808936 55.79390953 21.42578125 59.55078125 C21.42967165 62.17718066 21.43400702 64.80357944 21.43876648 67.42997742 C21.44695823 72.92818828 21.44608604 78.42634771 21.44067383 83.92456055 C21.43464048 90.2519632 21.4469365 96.57914312 21.4682439 102.90650779 C21.48808249 109.02595012 21.49102192 115.14528942 21.48750877 121.26476097 C21.48802005 123.85334991 21.49322125 126.44194256 21.50332069 129.03051186 C21.51574422 132.66024236 21.50885735 136.28946623 21.49731445 139.91918945 C21.50495819 140.97464462 21.51260193 142.03009979 21.52047729 143.11753845 C21.4208327 157.39125111 17.22571131 169.73222707 7.125 180.0625 C-6.77765265 191.19930802 -19.45563997 193.32218574 -36.875 192.0625 C-48.38257741 189.82242653 -58.76666802 182.19012556 -65.53515625 172.74609375 C-71.69920677 163.06838299 -73.32495922 154.00369011 -73.27905273 142.64306641 C-73.28591599 141.44168533 -73.29277924 140.24030426 -73.29985046 139.0025177 C-73.3149215 135.73576537 -73.31663841 132.46937478 -73.31090808 129.20260286 C-73.30779659 126.46189589 -73.31393039 123.72123942 -73.31994683 120.98053968 C-73.33394787 114.50749071 -73.33246827 108.03457383 -73.32104492 101.56152344 C-73.3095723 94.9142295 -73.32363475 88.26733945 -73.3504414 81.62009871 C-73.37269305 75.88469652 -73.37921449 70.14942022 -73.37336498 64.41397798 C-73.37001616 61.00091963 -73.37227018 57.5881199 -73.38961601 54.17509842 C-73.40458796 50.36333932 -73.39380167 46.55245545 -73.37670898 42.74072266 C-73.38637695 41.6307341 -73.39604492 40.52074554 -73.40600586 39.37712097 C-73.28073222 25.95295736 -68.71721718 15.37176272 -59.5859375 5.6171875 C-43.46677048 -9.88791602 -18.80482522 -11.8525527 0 0 Z " transform="translate(1391.875,895.9375)" style="fill: #FFFFFF;"/><path d="M0 0 C11.22 0 22.44 0 34 0 C40.66976309 21.32541931 47.12167053 42.70539739 53.46661377 64.12908936 C54.9142215 69.01560808 56.36418515 73.90142816 57.81397724 78.78729916 C58.94228607 82.589811 60.07024817 86.39242389 61.19682312 90.19544983 C64.44028206 101.13779686 67.72046136 112.06820452 71 123 C71.33 82.41 71.66 41.82 72 0 C81.9 0 91.8 0 102 0 C102 64.35 102 128.7 102 195 C91.11 195 80.22 195 69 195 C63.57194114 178.5464751 63.57194114 178.5464751 61.15234375 171.19921875 C59.53952144 166.30182534 57.92635058 161.40455037 56.31005859 156.50830078 C47.69207955 130.39345985 39.33887721 104.20789979 31 78 C30.67 116.61 30.34 155.22 30 195 C20.1 195 10.2 195 0 195 C0 130.65 0 66.3 0 0 Z " transform="translate(1192,891)" style="fill: #FFFFFF;"/><path d="M0 0 C1.72974441 0.00015918 3.45949355 0.0058569 5.18920898 0.01586914 C6.09783188 0.01728409 7.00645477 0.01869904 7.94261169 0.02015686 C10.85687494 0.02577346 13.77106254 0.03832874 16.68530273 0.05102539 C18.65600475 0.05603825 20.62670797 0.06060153 22.59741211 0.06469727 C27.43923832 0.07574828 32.28100768 0.09302401 37.12280273 0.11352539 C38.53348704 4.80037839 39.60372002 9.38087142 40.40611267 14.21884155 C40.52004429 14.8988647 40.63397591 15.57888786 40.75136 16.27951777 C41.12894218 18.53915714 41.50074922 20.7997069 41.87255859 23.06030273 C42.14349344 24.68896226 42.41478898 26.31756183 42.68641663 27.94610596 C43.42148095 32.35932332 44.15156865 36.77335119 44.8808105 41.18753386 C45.64779457 45.82454943 46.41953922 50.46077247 47.19081116 55.09707642 C48.65303211 63.89109917 50.11126023 72.68577888 51.5679279 81.48072302 C53.69737606 94.33674736 55.83237162 107.19185059 57.9678812 120.04686928 C58.12541416 120.99517785 58.28294711 121.94348643 58.44525379 122.92053163 C58.75981063 124.81408175 59.07437768 126.70763017 59.38895518 128.60117686 C60.30259475 134.10153784 61.21495351 139.60210926 62.12613857 145.10287738 C62.69721458 148.54976765 63.26896572 151.99654574 63.84082603 155.44330597 C64.1027289 157.0228755 64.3643337 158.60249448 64.62559128 160.18217087 C64.9870796 162.36770814 65.34946952 164.55309271 65.71250916 166.7383728 C65.88374686 167.76988311 65.88374686 167.76988311 66.0584439 168.82223201 C66.67365569 172.50429982 67.3094598 176.18186758 67.96841621 179.85637283 C68.1077434 180.63426686 68.24707059 181.41216089 68.39061981 182.21362746 C68.65884459 183.7039818 68.92942124 185.19391541 69.20271772 186.68334806 C69.71821174 189.54225236 70.12280273 192.20118182 70.12280273 195.11352539 C59.56280273 195.11352539 49.00280273 195.11352539 38.12280273 195.11352539 C36.17967819 185.20359022 34.47673527 175.28173213 32.93530273 165.30102539 C32.75644531 164.15005371 32.57758789 162.99908203 32.39331055 161.81323242 C32.22798828 160.73025879 32.06266602 159.64728516 31.89233398 158.53149414 C31.7438501 157.55978271 31.59536621 156.58807129 31.44238281 155.58691406 C31.12280273 153.11352539 31.12280273 153.11352539 31.12280273 150.11352539 C21.22280273 150.11352539 11.32280273 150.11352539 1.12280273 150.11352539 C0.79280273 154.07352539 0.46280273 158.03352539 0.12280273 162.11352539 C-0.23018988 164.83017512 -0.61217166 167.54334251 -1.03344727 170.25024414 C-1.14064087 170.94116653 -1.24783447 171.63208893 -1.35827637 172.34394836 C-1.58140693 173.77487364 -1.80661925 175.20547588 -2.03393555 176.63574219 C-2.38259447 178.83507075 -2.72204533 181.03569729 -3.06079102 183.23657227 C-3.28030418 184.63704747 -3.5003361 186.03744148 -3.72094727 187.43774414 C-3.91881836 188.69675537 -4.11668945 189.9557666 -4.32055664 191.25292969 C-4.87719727 194.11352539 -4.87719727 194.11352539 -5.87719727 195.11352539 C-8.16871144 195.20143514 -10.46292251 195.22046577 -12.75610352 195.21118164 C-13.78609718 195.20905922 -13.78609718 195.20905922 -14.8368988 195.20689392 C-17.03787528 195.20128018 -19.23875135 195.18872546 -21.43969727 195.17602539 C-22.92862809 195.17101216 -24.41756051 195.16644894 -25.90649414 195.16235352 C-29.56342801 195.15130632 -33.22030285 195.13403252 -36.87719727 195.11352539 C-36.24080078 185.32889254 -34.57972421 175.73360251 -32.93383789 166.08178711 C-32.62955092 164.27891293 -32.32562089 162.47597847 -32.02201843 160.67298889 C-31.20156166 155.80735916 -30.3758519 150.94263486 -29.54893303 146.07809973 C-28.68336242 140.98211255 -27.82192996 135.8854256 -26.95983887 130.78884888 C-25.51358486 122.24291698 -24.06382889 113.69758462 -22.61206055 105.15258789 C-20.9319242 95.26312315 -19.25774965 85.37266269 -17.58663225 75.48167026 C-15.9783529 65.96361849 -14.36554901 56.44633858 -12.7507782 46.92938614 C-12.06344028 42.87781639 -11.37777023 38.82596953 -10.69343567 34.77389145 C-9.88942187 30.01425994 -9.08148929 25.25531036 -8.27045631 20.49687004 C-7.97275336 18.74628299 -7.67644051 16.99545893 -7.38158226 15.24439049 C-6.98063686 12.86465931 -6.57478396 10.48581804 -6.16760254 8.10714722 C-6.0505781 7.40551984 -5.93355367 6.70389246 -5.81298304 5.98100364 C-4.80345126 0.14064636 -4.80345126 0.14064636 0 0 Z " transform="translate(2020.877197265625,890.886474609375)" style="fill: #FFFFFF;"/><path d="M0 0 C1.72974441 0.00015918 3.45949355 0.0058569 5.18920898 0.01586914 C6.09783188 0.01728409 7.00645477 0.01869904 7.94261169 0.02015686 C10.85687494 0.02577346 13.77106254 0.03832874 16.68530273 0.05102539 C18.65600475 0.05603825 20.62670797 0.06060153 22.59741211 0.06469727 C27.43923832 0.07574828 32.28100768 0.09302401 37.12280273 0.11352539 C38.53348704 4.80037839 39.60372002 9.38087142 40.40611267 14.21884155 C40.52004429 14.8988647 40.63397591 15.57888786 40.75136 16.27951777 C41.12894218 18.53915714 41.50074922 20.7997069 41.87255859 23.06030273 C42.14349344 24.68896226 42.41478898 26.31756183 42.68641663 27.94610596 C43.42148095 32.35932332 44.15156865 36.77335119 44.8808105 41.18753386 C45.64779457 45.82454943 46.41953922 50.46077247 47.19081116 55.09707642 C48.65303211 63.89109917 50.11126023 72.68577888 51.5679279 81.48072302 C53.69737606 94.33674736 55.83237162 107.19185059 57.9678812 120.04686928 C58.12541416 120.99517785 58.28294711 121.94348643 58.44525379 122.92053163 C58.75981063 124.81408175 59.07437768 126.70763017 59.38895518 128.60117686 C60.30259475 134.10153784 61.21495351 139.60210926 62.12613857 145.10287738 C62.69721458 148.54976765 63.26896572 151.99654574 63.84082603 155.44330597 C64.1027289 157.0228755 64.3643337 158.60249448 64.62559128 160.18217087 C64.9870796 162.36770814 65.34946952 164.55309271 65.71250916 166.7383728 C65.88374686 167.76988311 65.88374686 167.76988311 66.0584439 168.82223201 C66.67365569 172.50429982 67.3094598 176.18186758 67.96841621 179.85637283 C68.1077434 180.63426686 68.24707059 181.41216089 68.39061981 182.21362746 C68.65884459 183.7039818 68.92942124 185.19391541 69.20271772 186.68334806 C69.71821174 189.54225236 70.12280273 192.20118182 70.12280273 195.11352539 C59.56280273 195.11352539 49.00280273 195.11352539 38.12280273 195.11352539 C36.17967819 185.20359022 34.47673527 175.28173213 32.93530273 165.30102539 C32.75644531 164.15005371 32.57758789 162.99908203 32.39331055 161.81323242 C32.22798828 160.73025879 32.06266602 159.64728516 31.89233398 158.53149414 C31.7438501 157.55978271 31.59536621 156.58807129 31.44238281 155.58691406 C31.12280273 153.11352539 31.12280273 153.11352539 31.12280273 150.11352539 C21.22280273 150.11352539 11.32280273 150.11352539 1.12280273 150.11352539 C0.79280273 154.07352539 0.46280273 158.03352539 0.12280273 162.11352539 C-0.23018988 164.83017512 -0.61217166 167.54334251 -1.03344727 170.25024414 C-1.14064087 170.94116653 -1.24783447 171.63208893 -1.35827637 172.34394836 C-1.58140693 173.77487364 -1.80661925 175.20547588 -2.03393555 176.63574219 C-2.38259447 178.83507075 -2.72204533 181.03569729 -3.06079102 183.23657227 C-3.28030418 184.63704747 -3.5003361 186.03744148 -3.72094727 187.43774414 C-3.91881836 188.69675537 -4.11668945 189.9557666 -4.32055664 191.25292969 C-4.87719727 194.11352539 -4.87719727 194.11352539 -5.87719727 195.11352539 C-8.16871144 195.20143514 -10.46292251 195.22046577 -12.75610352 195.21118164 C-13.78609718 195.20905922 -13.78609718 195.20905922 -14.8368988 195.20689392 C-17.03787528 195.20128018 -19.23875135 195.18872546 -21.43969727 195.17602539 C-22.92862809 195.17101216 -24.41756051 195.16644894 -25.90649414 195.16235352 C-29.56342801 195.15130632 -33.22030285 195.13403252 -36.87719727 195.11352539 C-36.24080078 185.32889254 -34.57972421 175.73360251 -32.93383789 166.08178711 C-32.62955092 164.27891293 -32.32562089 162.47597847 -32.02201843 160.67298889 C-31.20156166 155.80735916 -30.3758519 150.94263486 -29.54893303 146.07809973 C-28.68336242 140.98211255 -27.82192996 135.8854256 -26.95983887 130.78884888 C-25.51358486 122.24291698 -24.06382889 113.69758462 -22.61206055 105.15258789 C-20.9319242 95.26312315 -19.25774965 85.37266269 -17.58663225 75.48167026 C-15.9783529 65.96361849 -14.36554901 56.44633858 -12.7507782 46.92938614 C-12.06344028 42.87781639 -11.37777023 38.82596953 -10.69343567 34.77389145 C-9.88942187 30.01425994 -9.08148929 25.25531036 -8.27045631 20.49687004 C-7.97275336 18.74628299 -7.67644051 16.99545893 -7.38158226 15.24439049 C-6.98063686 12.86465931 -6.57478396 10.48581804 -6.16760254 8.10714722 C-6.0505781 7.40551984 -5.93355367 6.70389246 -5.81298304 5.98100364 C-4.80345126 0.14064636 -4.80345126 0.14064636 0 0 Z " transform="translate(1636.877197265625,890.886474609375)" style="fill: #FFFFFF;"/><path d="M0 0 C1.72974441 0.00015918 3.45949355 0.0058569 5.18920898 0.01586914 C6.09783188 0.01728409 7.00645477 0.01869904 7.94261169 0.02015686 C10.85687494 0.02577346 13.77106254 0.03832874 16.68530273 0.05102539 C18.65600475 0.05603825 20.62670797 0.06060153 22.59741211 0.06469727 C27.43923832 0.07574828 32.28100768 0.09302401 37.12280273 0.11352539 C38.53348704 4.80037839 39.60372002 9.38087142 40.40611267 14.21884155 C40.52004429 14.8988647 40.63397591 15.57888786 40.75136 16.27951777 C41.12894218 18.53915714 41.50074922 20.7997069 41.87255859 23.06030273 C42.14349344 24.68896226 42.41478898 26.31756183 42.68641663 27.94610596 C43.42148095 32.35932332 44.15156865 36.77335119 44.8808105 41.18753386 C45.64779457 45.82454943 46.41953922 50.46077247 47.19081116 55.09707642 C48.65303211 63.89109917 50.11126023 72.68577888 51.5679279 81.48072302 C53.69737606 94.33674736 55.83237162 107.19185059 57.9678812 120.04686928 C58.12541416 120.99517785 58.28294711 121.94348643 58.44525379 122.92053163 C58.75981063 124.81408175 59.07437768 126.70763017 59.38895518 128.60117686 C60.30259475 134.10153784 61.21495351 139.60210926 62.12613857 145.10287738 C62.69721458 148.54976765 63.26896572 151.99654574 63.84082603 155.44330597 C64.1027289 157.0228755 64.3643337 158.60249448 64.62559128 160.18217087 C64.9870796 162.36770814 65.34946952 164.55309271 65.71250916 166.7383728 C65.88374686 167.76988311 65.88374686 167.76988311 66.0584439 168.82223201 C66.67365569 172.50429982 67.3094598 176.18186758 67.96841621 179.85637283 C68.1077434 180.63426686 68.24707059 181.41216089 68.39061981 182.21362746 C68.65884459 183.7039818 68.92942124 185.19391541 69.20271772 186.68334806 C69.71821174 189.54225236 70.12280273 192.20118182 70.12280273 195.11352539 C59.56280273 195.11352539 49.00280273 195.11352539 38.12280273 195.11352539 C36.17967819 185.20359022 34.47673527 175.28173213 32.93530273 165.30102539 C32.75644531 164.15005371 32.57758789 162.99908203 32.39331055 161.81323242 C32.22798828 160.73025879 32.06266602 159.64728516 31.89233398 158.53149414 C31.7438501 157.55978271 31.59536621 156.58807129 31.44238281 155.58691406 C31.12280273 153.11352539 31.12280273 153.11352539 31.12280273 150.11352539 C21.22280273 150.11352539 11.32280273 150.11352539 1.12280273 150.11352539 C0.79280273 154.07352539 0.46280273 158.03352539 0.12280273 162.11352539 C-0.23018988 164.83017512 -0.61217166 167.54334251 -1.03344727 170.25024414 C-1.14064087 170.94116653 -1.24783447 171.63208893 -1.35827637 172.34394836 C-1.58140693 173.77487364 -1.80661925 175.20547588 -2.03393555 176.63574219 C-2.38259447 178.83507075 -2.72204533 181.03569729 -3.06079102 183.23657227 C-3.28030418 184.63704747 -3.5003361 186.03744148 -3.72094727 187.43774414 C-3.91881836 188.69675537 -4.11668945 189.9557666 -4.32055664 191.25292969 C-4.87719727 194.11352539 -4.87719727 194.11352539 -5.87719727 195.11352539 C-8.16871144 195.20143514 -10.46292251 195.22046577 -12.75610352 195.21118164 C-13.78609718 195.20905922 -13.78609718 195.20905922 -14.8368988 195.20689392 C-17.03787528 195.20128018 -19.23875135 195.18872546 -21.43969727 195.17602539 C-22.92862809 195.17101216 -24.41756051 195.16644894 -25.90649414 195.16235352 C-29.56342801 195.15130632 -33.22030285 195.13403252 -36.87719727 195.11352539 C-36.24080078 185.32889254 -34.57972421 175.73360251 -32.93383789 166.08178711 C-32.62955092 164.27891293 -32.32562089 162.47597847 -32.02201843 160.67298889 C-31.20156166 155.80735916 -30.3758519 150.94263486 -29.54893303 146.07809973 C-28.68336242 140.98211255 -27.82192996 135.8854256 -26.95983887 130.78884888 C-25.51358486 122.24291698 -24.06382889 113.69758462 -22.61206055 105.15258789 C-20.9319242 95.26312315 -19.25774965 85.37266269 -17.58663225 75.48167026 C-15.9783529 65.96361849 -14.36554901 56.44633858 -12.7507782 46.92938614 C-12.06344028 42.87781639 -11.37777023 38.82596953 -10.69343567 34.77389145 C-9.88942187 30.01425994 -9.08148929 25.25531036 -8.27045631 20.49687004 C-7.97275336 18.74628299 -7.67644051 16.99545893 -7.38158226 15.24439049 C-6.98063686 12.86465931 -6.57478396 10.48581804 -6.16760254 8.10714722 C-6.0505781 7.40551984 -5.93355367 6.70389246 -5.81298304 5.98100364 C-4.80345126 0.14064636 -4.80345126 0.14064636 0 0 Z " transform="translate(976.877197265625,890.886474609375)" style="fill: #FFFFFF;"/><path d="M0 0 C11.46463876 7.71598303 18.81889127 18.00717494 21.72021484 31.51098633 C22.56065374 37.42558796 22.3179652 43.40723762 22.2421875 49.3671875 C22.2009375 53.9665625 22.1596875 58.5659375 22.1171875 63.3046875 C11.5571875 63.3046875 0.9971875 63.3046875 -9.8828125 63.3046875 C-10.1328125 49.6796875 -10.1328125 49.6796875 -10.18066406 45.41552734 C-10.32453819 36.53104675 -10.32453819 36.53104675 -14.8828125 29.3046875 C-19.28332887 25.32326793 -22.8164713 24.74956189 -28.54296875 24.96484375 C-31.51955253 25.39716894 -33.49234555 26.51183728 -35.8828125 28.3046875 C-36.5428125 28.3046875 -37.2028125 28.3046875 -37.8828125 28.3046875 C-39.97038619 32.3406633 -41.00730303 35.54277662 -41.02998352 40.0980835 C-41.03713882 41.08496155 -41.04429413 42.0718396 -41.05166626 43.08862305 C-41.05435516 44.17022705 -41.05704407 45.25183105 -41.05981445 46.36621094 C-41.06638565 47.50632629 -41.07295685 48.64644165 -41.07972717 49.82110596 C-41.09947205 53.60209211 -41.11112525 57.38303853 -41.12109375 61.1640625 C-41.12720704 63.09959362 -41.12720704 63.09959362 -41.13344383 65.07422638 C-41.15215732 71.19900921 -41.1667221 77.3237721 -41.1750558 83.44857764 C-41.18482326 90.50986236 -41.21113164 97.5708332 -41.25155669 104.63200736 C-41.28540116 110.75464783 -41.29720456 116.87715674 -41.30125999 122.99988556 C-41.30613354 125.60099669 -41.31776921 128.20210429 -41.33629799 130.80315399 C-41.36062386 134.44421923 -41.35973581 138.08446445 -41.3527832 141.72558594 C-41.37199829 143.33584656 -41.37199829 143.33584656 -41.39160156 144.9786377 C-41.34750194 151.31785418 -40.62929093 155.1344683 -36.8828125 160.3046875 C-32.99670117 163.95527693 -28.63500926 163.80987974 -23.5390625 163.65234375 C-18.49608508 162.992307 -15.94174175 160.55732332 -12.76074219 156.79443359 C-10.24614584 152.12157346 -10.28033162 148.32045611 -10.2734375 143.09375 C-10.25690125 142.12561371 -10.24036499 141.15747742 -10.22332764 140.16000366 C-10.17493905 137.08316648 -10.1534967 134.00682324 -10.1328125 130.9296875 C-10.10464522 128.83721486 -10.07471674 126.74476513 -10.04296875 124.65234375 C-9.96918228 119.53649901 -9.91955162 114.420927 -9.8828125 109.3046875 C-15.1628125 109.3046875 -20.4428125 109.3046875 -25.8828125 109.3046875 C-25.8828125 99.7346875 -25.8828125 90.1646875 -25.8828125 80.3046875 C-10.0428125 80.3046875 5.7971875 80.3046875 22.1171875 80.3046875 C22.23751393 98.29126022 22.23751393 98.29126022 22.26367188 106.0234375 C22.28152889 111.27678646 22.30253616 116.52997692 22.34350586 121.78320312 C22.37636633 126.02371699 22.3940961 130.26406061 22.40181923 134.50469208 C22.40731527 136.11363144 22.4180461 137.72256266 22.43437767 139.33142853 C22.59313561 155.6359127 20.18213264 169.21100424 8.859375 181.6484375 C-2.02487762 191.99579873 -13.57270453 194.92044152 -28.22485352 194.77758789 C-41.44992387 194.33774553 -52.16079449 188.87680048 -61.25390625 179.27734375 C-69.88335538 168.82681183 -72.3401704 158.09578006 -72.28686523 144.79345703 C-72.29372849 143.58232239 -72.30059174 142.37118774 -72.30766296 141.12335205 C-72.32273526 137.82974203 -72.32445055 134.53649074 -72.31872058 131.24286127 C-72.31560937 128.47978649 -72.32174258 125.71676183 -72.32775933 122.95369422 C-72.34176096 116.42790789 -72.34028025 109.90225259 -72.32885742 103.37646484 C-72.31738469 96.67464057 -72.33144731 89.9732169 -72.3582539 83.27144539 C-72.38050433 77.48933469 -72.38702726 71.70734886 -72.38117748 65.92519844 C-72.37782838 62.48419521 -72.38008462 59.04344851 -72.39742851 55.60248184 C-72.41239874 51.75959209 -72.40161539 47.91757067 -72.38452148 44.07470703 C-72.39902344 42.39569809 -72.39902344 42.39569809 -72.41381836 40.68276978 C-72.29082799 27.39804613 -67.86531196 16.8243023 -58.8515625 7.1171875 C-43.31804869 -7.74095614 -18.67319609 -10.98125624 0 0 Z " transform="translate(751.8828125,893.6953125)" style="fill: #FFFFFF;"/><path d="M0 0 C1.49273438 -0.0309375 1.49273438 -0.0309375 3.015625 -0.0625 C15.27937852 -0.12654049 26.11351904 3.51165745 35.125 12 C43.66476284 21.08197 48.23570787 32.83897738 47.875 45.25 C43.79293652 46.08963669 39.7091578 46.92061559 35.625 47.75 C34.46613281 47.98847656 33.30726563 48.22695313 32.11328125 48.47265625 C30.44072266 48.81103516 30.44072266 48.81103516 28.734375 49.15625 C27.19475098 49.47045898 27.19475098 49.47045898 25.62402344 49.79101562 C22.875 50.25 22.875 50.25 18.875 50.25 C18.70484375 49.45335937 18.5346875 48.65671875 18.359375 47.8359375 C16.97262459 41.77259261 15.64757314 37.1933717 11.875 32.25 C11.875 31.59 11.875 30.93 11.875 30.25 C6.51849397 27.82404618 1.68093829 27.55048936 -4.125 28.25 C-8.54358214 30.64339866 -10.21839878 33.67415706 -12.125 38.25 C-15.0619863 48.19852401 -12.67125577 57.19210461 -8.125 66.25 C-2.44564055 75.37445313 5.91230128 82.96925779 14.25 89.625 C31.22853807 103.29416201 46.20736351 121.06231479 49.875 143.25 C51.33690518 158.19391961 47.95719325 173.15842923 38.875 185.25 C32.29156139 192.83361486 23.66258838 197.17323815 13.875 199.25 C10.16998698 199.49805321 6.46249196 199.48120257 2.75 199.5 C1.25726562 199.5309375 1.25726562 199.5309375 -0.265625 199.5625 C-12.82732233 199.62809633 -23.4812593 195.66475154 -32.8125 187.125 C-40.43282042 178.92956106 -44.44943002 168.9666647 -47.125 158.25 C-47.32351562 157.50621094 -47.52203125 156.76242187 -47.7265625 155.99609375 C-48.33692647 151.78936949 -48.125 147.50077324 -48.125 143.25 C-33.77 142.26 -33.77 142.26 -19.125 141.25 C-18.135 145.87 -17.145 150.49 -16.125 155.25 C-12.89492669 162.90017363 -10.62466241 167.25976471 -2.875 170.6875 C2.07594113 171.43014117 5.43877515 170.47645119 9.875 168.25 C14.00442862 165.01827326 16.66230754 161.37129354 17.875 156.25 C19.10423414 145.50169657 16.29442882 137.80923843 9.875 129.25 C8.22283788 127.56895393 6.55347817 125.90477085 4.875 124.25 C3.85678157 123.22263241 2.83990751 122.19393107 1.82421875 121.1640625 C-4.95863395 114.25367482 -4.95863395 114.25367482 -12.125 107.75 C-27.0222701 94.95846217 -42.21663338 79.57977065 -45.125 59.25 C-46.12518538 41.68832925 -45.21909617 25.73441508 -33.0546875 11.89453125 C-23.37749417 2.65090393 -12.92030318 0.06541926 0 0 Z " transform="translate(2286.125,888.75)" style="fill: #FFFFFF;"/><path d="M0 0 C30.36 0 60.72 0 92 0 C92 9.57 92 19.14 92 29 C81.77 29 71.54 29 61 29 C61 83.78 61 138.56 61 195 C51.1 195 41.2 195 31 195 C31 140.22 31 85.44 31 29 C20.77 29 10.54 29 0 29 C0 19.43 0 9.86 0 0 Z " transform="translate(852,891)" style="fill: #FFFFFF;"/><path d="M0 0 C9.9 0 19.8 0 30 0 C30 54.78 30 109.56 30 166 C46.83 166 63.66 166 81 166 C81 175.57 81 185.14 81 195 C54.27 195 27.54 195 0 195 C0 130.65 0 66.3 0 0 Z " transform="translate(1884,891)" style="fill: #FFFFFF;"/><path d="M0 0 C9.9 0 19.8 0 30 0 C30 54.78 30 109.56 30 166 C46.83 166 63.66 166 81 166 C81 175.57 81 185.14 81 195 C54.27 195 27.54 195 0 195 C0 130.65 0 66.3 0 0 Z " transform="translate(1071,891)" style="fill: #FFFFFF;"/><path d="M0 0 C9.9 0 19.8 0 30 0 C30 64.35 30 128.7 30 195 C20.1 195 10.2 195 0 195 C0 130.65 0 66.3 0 0 Z " transform="translate(798,891)" style="fill: #FFFFFF;"/><path d="M0 0 C9.9 0 19.8 0 30 0 C30 64.35 30 128.7 30 195 C20.1 195 10.2 195 0 195 C0 130.65 0 66.3 0 0 Z " transform="translate(624,891)" style="fill: #FFFFFF;"/><path d="M0 0 C32 0 32 0 42 5 C48.40636132 12.20715649 50.35910812 18.35576391 50.375 27.875 C50.39949219 28.63941406 50.42398437 29.40382813 50.44921875 30.19140625 C50.48193645 36.61498197 48.85398688 41.98750564 44.36474609 46.72607422 C43.91437988 47.14646973 43.46401367 47.56686523 43 48 C44.08244152 50.43549343 45.18583605 52.21580961 46.9375 54.25 C51.49339633 60.32452844 52.53879243 66.48935778 52.4375 73.875 C52.42847656 74.66366455 52.41945313 75.4523291 52.41015625 76.26489258 C52.19396539 83.55758095 51.13569864 89.5107988 46.12890625 95.08203125 C32.77063956 107.48072491 20.87795337 102 0 102 C0 68.34 0 34.68 0 0 Z " transform="translate(1479,1148)" style="fill: #0070BC;"/><path d="M0 0 C32 0 32 0 42 5 C48.40636132 12.20715649 50.35910812 18.35576391 50.375 27.875 C50.39949219 28.63941406 50.42398438 29.40382813 50.44921875 30.19140625 C50.48193645 36.61498197 48.85398688 41.98750564 44.36474609 46.72607422 C43.91437988 47.14646973 43.46401367 47.56686523 43 48 C44.08244152 50.43549343 45.18583605 52.21580961 46.9375 54.25 C51.49339633 60.32452844 52.53879243 66.48935778 52.4375 73.875 C52.42847656 74.66366455 52.41945313 75.4523291 52.41015625 76.26489258 C52.19396539 83.55758095 51.13569864 89.5107988 46.12890625 95.08203125 C32.77063956 107.48072491 20.87795337 102 0 102 C0 68.34 0 34.68 0 0 Z " transform="translate(858,1148)" style="fill: #0070BC;"/><path d="M0 0 C35.15238095 0 35.15238095 0 41.98828125 5.640625 C42.42527344 6.17171875 42.86226562 6.7028125 43.3125 7.25 C43.76238281 7.77078125 44.21226563 8.2915625 44.67578125 8.828125 C49.53315966 16.79479874 49.44487842 24.40537962 49.3984375 33.5 C49.40046258 34.90429841 49.40337761 36.30859578 49.40713501 37.71289062 C49.41153803 40.6446339 49.4051932 43.57610148 49.39111328 46.5078125 C49.37402223 50.24668327 49.38387437 53.98490776 49.40183067 57.72375488 C49.41272366 60.62016581 49.40919709 63.51642608 49.4014473 66.4128418 C49.39946048 67.79060952 49.40185058 69.16839138 49.40888596 70.54614258 C49.45163393 81.2678674 48.82175928 88.99633934 41 97 C27.79602041 106.7709449 21.39606909 102 0 102 C0 68.34 0 34.68 0 0 Z " transform="translate(1149,1148)" style="fill: #0071BC;"/><path d="M0 0 C5.85321766 3.59116629 10.34586228 9.00375463 12.5 15.5 C12.76742554 18.70491028 12.76742554 18.70491028 12.79052734 22.36645508 C12.79724457 23.03708481 12.80396179 23.70771454 12.81088257 24.39866638 C12.8298089 26.60569768 12.83378417 28.81242394 12.8359375 31.01953125 C12.84236983 32.56263857 12.84909852 34.10574469 12.85610962 35.64884949 C12.86806944 38.88091863 12.87179185 42.112881 12.87060547 45.3449707 C12.8704025 49.47073506 12.89768648 53.59580886 12.93214989 57.7214098 C12.95447512 60.90861608 12.95844128 64.09565775 12.95738602 67.28293419 C12.95973422 68.80307072 12.96851348 70.32321232 12.98405075 71.84327126 C13.07059725 81.18598799 12.97026963 88.39873804 6.53515625 95.7421875 C5.88417969 96.28101563 5.23320313 96.81984375 4.5625 97.375 C3.91410156 97.92929688 3.26570313 98.48359375 2.59765625 99.0546875 C-4.12108366 103.68398688 -11.68056227 103.15716551 -19.5 102.5 C-25.69451872 100.91336714 -30.10074524 96.8244964 -33.5 91.5 C-37.53111494 84.54770464 -36.97328405 77.09477873 -36.96875 69.29296875 C-36.97586263 67.80235004 -36.98356322 66.31173402 -36.99182129 64.82112122 C-37.00522977 61.7035053 -37.00685192 58.58614244 -37.00097656 55.46850586 C-36.99509102 51.49749116 -37.02563968 47.52770355 -37.06609344 43.55692577 C-37.09210362 40.47941183 -37.0948358 37.40218792 -37.09120178 34.32457924 C-37.09288137 32.86191036 -37.10241067 31.39922637 -37.12034607 29.93666649 C-37.22549184 20.30145205 -36.58054427 11.90861218 -29.68591309 4.56877136 C-22.04558539 -2.54068605 -9.63375978 -4.27746505 0 0 Z " transform="translate(1674.5,1148.5)" style="fill: #0070BB;"/><path d="M0 0 C22.74305556 0 22.74305556 0 27.83203125 4.6875 C31.29260779 8.57760946 33.11983788 11.22190291 33.14717102 16.49005127 C33.15432632 17.43492905 33.16148163 18.37980682 33.16885376 19.35331726 C33.17154266 20.39333389 33.17423157 21.43335052 33.17700195 22.50488281 C33.18685875 24.14409447 33.18685875 24.14409447 33.19691467 25.81642151 C33.21668092 29.44532331 33.22831776 33.07418366 33.23828125 36.703125 C33.24235678 37.94048149 33.2464323 39.17783798 33.25063133 40.45269012 C33.26935216 46.32598827 33.28391448 52.19927318 33.2922433 58.07259393 C33.30201039 64.84808211 33.32831481 71.62324314 33.36874419 78.39861608 C33.40257304 84.26976659 33.41439086 90.1408076 33.41844749 96.01204681 C33.42332395 98.50792407 33.43496785 101.00379757 33.45348549 103.4996109 C33.4777898 106.99251942 33.47692731 110.48457216 33.4699707 113.97753906 C33.48278076 115.00945877 33.49559082 116.04137848 33.50878906 117.10456848 C33.46530113 123.09281568 32.90573368 126.39626846 29 131 C28.4225 131.7425 27.845 132.485 27.25 133.25 C19.82039411 139.02858236 8.40309115 137 0 137 C0 91.79 0 46.58 0 0 Z " transform="translate(1761,920)" style="fill: #000000;"/><path d="M0 0 C22.74305556 0 22.74305556 0 27.83203125 4.6875 C31.29260779 8.57760946 33.11983788 11.22190291 33.14717102 16.49005127 C33.15432632 17.43492905 33.16148163 18.37980682 33.16885376 19.35331726 C33.17154266 20.39333389 33.17423157 21.43335052 33.17700195 22.50488281 C33.18685875 24.14409447 33.18685875 24.14409447 33.19691467 25.81642151 C33.21668092 29.44532331 33.22831776 33.07418366 33.23828125 36.703125 C33.24235678 37.94048149 33.2464323 39.17783798 33.25063133 40.45269012 C33.26935216 46.32598827 33.28391448 52.19927318 33.2922433 58.07259393 C33.30201039 64.84808211 33.32831481 71.62324314 33.36874419 78.39861608 C33.40257304 84.26976659 33.41439086 90.1408076 33.41844749 96.01204681 C33.42332395 98.50792407 33.43496785 101.00379757 33.45348549 103.4996109 C33.4777898 106.99251942 33.47692731 110.48457216 33.4699707 113.97753906 C33.48278076 115.00945877 33.49559082 116.04137848 33.50878906 117.10456848 C33.46530113 123.09281568 32.90573368 126.39626846 29 131 C28.4225 131.7425 27.845 132.485 27.25 133.25 C19.82039411 139.02858236 8.40309115 137 0 137 C0 91.79 0 46.58 0 0 Z " transform="translate(536,920)" style="fill: #000000;"/><path d="M0 0 C4.45146251 2.18526342 7.18885145 4.9394521 10 9 C10.95622607 11.86867821 11.12976881 13.66981104 11.14044189 16.64826965 C11.14615204 17.60293625 11.15186218 18.55760284 11.15774536 19.54119873 C11.15886322 20.58697083 11.15998108 21.63274292 11.16113281 22.71020508 C11.16858017 24.36426613 11.16858017 24.36426613 11.17617798 26.05174255 C11.19080921 29.70767842 11.19760321 33.36357089 11.203125 37.01953125 C11.20887563 39.55677797 11.21463338 42.09402467 11.22039795 44.63127136 C11.22956646 49.27438367 11.23586568 53.91748293 11.2388947 58.56060201 C11.24337354 65.38809027 11.26091456 72.21537815 11.2898953 79.04280549 C11.3141439 84.96147076 11.32184036 90.88008627 11.32357025 96.79880333 C11.32659863 99.31420673 11.33463333 101.82960924 11.34775543 104.34498024 C11.36480294 107.86401182 11.36293854 111.38255525 11.35644531 114.90161133 C11.37026749 116.46116043 11.37026749 116.46116043 11.3843689 118.05221558 C11.34874083 124.21371205 10.86660423 128.92915933 6.46484375 133.64453125 C0.53633112 138.17809973 -3.55661985 138.91373908 -11 138 C-15.74366048 135.94753649 -18.83434567 132.69225105 -21 128 C-21.88155231 125.07270112 -22.12905387 122.44836099 -22.14044189 119.39678955 C-22.14615204 118.47729523 -22.15186218 117.5578009 -22.15774536 116.61044312 C-22.15886322 115.60881134 -22.15998108 114.60717957 -22.16113281 113.57519531 C-22.16609772 112.51456879 -22.17106262 111.45394226 -22.17617798 110.36117554 C-22.19079021 106.8501521 -22.19760031 103.33917386 -22.203125 99.828125 C-22.20887751 97.38677977 -22.21463524 94.94543456 -22.22039795 92.50408936 C-22.23090546 87.38293243 -22.23674968 82.26179119 -22.24023438 77.140625 C-22.24571652 70.58581211 -22.26973986 64.03120721 -22.29820633 57.4764595 C-22.31685163 52.43206176 -22.32203934 47.3877139 -22.32357025 42.34328461 C-22.32659335 39.92722182 -22.33461026 37.51115984 -22.34775543 35.09513092 C-22.36485393 31.71072172 -22.36292603 28.32681796 -22.35644531 24.94238281 C-22.3656601 23.94884796 -22.37487488 22.95531311 -22.3843689 21.93167114 C-22.3443272 15.23949526 -21.64129035 9.33898969 -17.34375 3.90625 C-11.78635648 -0.33243997 -6.89485154 -1.23537156 0 0 Z " transform="translate(1370,919)" style="fill: #000000;"/><path d="M0 0 C5.94 0 11.88 0 18 0 C21.375 9 21.375 9 22.7175293 13.58984375 C23.02170776 14.62431641 23.32588623 15.65878906 23.63928223 16.72460938 C23.94781128 17.78486328 24.25634033 18.84511719 24.57421875 19.9375 C25.01199646 21.42926758 25.01199646 21.42926758 25.45861816 22.95117188 C26.5381927 26.63315428 27.61254499 30.31666627 28.6875 34 C31.100625 42.25 33.51375 50.5 36 59 C36.33 39.53 36.66 20.06 37 0 C42.61 0 48.22 0 54 0 C54 33.66 54 67.32 54 102 C48.06 102 42.12 102 36 102 C29.66666667 83 23.33333333 64 17 45 C16.67 63.81 16.34 82.62 16 102 C10.72 102 5.44 102 0 102 C0 68.34 0 34.68 0 0 Z " transform="translate(1281,1148)" style="fill: #0070BC;"/><path d="M0 0 C5.28 0 10.56 0 16 0 C16.495 15.345 16.495 15.345 17 31 C19.11804587 26.9066406 21.23600948 22.81323886 23.35375977 18.71972656 C24.07441384 17.32679754 24.79511671 15.93389376 25.51586914 14.54101562 C26.55107205 12.5404308 27.58610016 10.53975562 28.62109375 8.5390625 C29.10551186 7.60303696 29.10551186 7.60303696 29.59971619 6.64810181 C30.74339063 4.43701706 31.88671127 2.22657746 33 0 C38.94 0 44.88 0 51 0 C48.75228148 6.74315556 48.75228148 6.74315556 47.1965332 9.69116211 C46.85310379 10.34882065 46.50967438 11.00647919 46.15583801 11.68406677 C45.79116928 12.37484818 45.42650055 13.06562958 45.05078125 13.77734375 C44.27716078 15.2749601 43.50440012 16.77302085 42.73242188 18.27148438 C41.52264775 20.61064325 40.30775442 22.94648534 39.07788086 25.27514648 C37.88550535 27.5384894 36.71658118 29.81272375 35.55078125 32.08984375 C35.18003983 32.77860092 34.8092984 33.46735809 34.42732239 34.17698669 C32.04867258 38.88346765 31.58451059 41.74009125 33 47 C34.33574464 50.78823083 35.85037986 54.48721113 37.40234375 58.19140625 C37.84010635 59.25487778 38.27786896 60.3183493 38.72889709 61.41404724 C40.12424974 64.80002698 41.53040703 68.18138439 42.9375 71.5625 C44.33892527 74.9480142 45.73808107 78.3344498 47.13539124 81.72166443 C48.00398506 83.82527311 48.87531769 85.92775357 49.7497406 88.02894592 C50.14677689 88.98691574 50.54381317 89.94488556 50.95288086 90.93188477 C51.30072128 91.7679274 51.64856171 92.60397003 52.00694275 93.46534729 C53.10670478 96.27235043 54.046651 99.139953 55 102 C48.4 102 41.8 102 35 102 C34.00097656 99.42445312 33.00195312 96.84890625 31.97265625 94.1953125 C31.00649843 91.70645274 30.04000866 89.21772213 29.07348633 86.72900391 C28.40093804 84.99671701 27.728736 83.26429564 27.05688477 81.53173828 C26.09221515 79.04424335 25.12630935 76.55723156 24.16015625 74.0703125 C23.85908463 73.29317902 23.558013 72.51604553 23.24781799 71.71536255 C21.74310906 67.8059423 21.74310906 67.8059423 20 64 C17.27854036 68.68255802 16.59610394 72.19480282 16.48828125 77.5859375 C16.46135445 78.63861313 16.46135445 78.63861313 16.43388367 79.71255493 C16.38010953 81.93331053 16.34599307 84.1538554 16.3125 86.375 C16.27929763 87.88935204 16.24480529 89.40367638 16.20898438 90.91796875 C16.1219945 94.61200389 16.06165238 98.30510935 16 102 C10.72 102 5.44 102 0 102 C0 68.34 0 34.68 0 0 Z " transform="translate(1802,1148)" style="fill: #0070BC;"/><path d="M0 0 C5.69920014 3.49667083 10.66233886 9.03284636 12.5 15.5 C12.72988186 18.77600012 12.68863076 22.03062143 12.625 25.3125 C12.61597656 26.19615234 12.60695313 27.07980469 12.59765625 27.99023438 C12.57419637 30.16027359 12.53832865 32.33017247 12.5 34.5 C6.89 34.5 1.28 34.5 -4.5 34.5 C-4.8125 26.6875 -4.8125 26.6875 -4.88793945 24.23901367 C-5.03979178 21.2939653 -5.16140275 19.01965983 -6.79296875 16.515625 C-8.83615644 15.29999846 -10.12789982 15.06699261 -12.5 15.0625 C-13.5209375 15.03349609 -13.5209375 15.03349609 -14.5625 15.00390625 C-17.38944477 15.7277409 -18.02012794 17.02246392 -19.5 19.5 C-19.95327181 22.37634042 -19.95327181 22.37634042 -19.88818359 25.58203125 C-19.89764008 26.81010498 -19.90709656 28.03817871 -19.9168396 29.3034668 C-19.91146971 30.63981449 -19.90531671 31.97615923 -19.8984375 33.3125 C-19.90045932 34.68725743 -19.90337167 36.06201381 -19.90713501 37.43676758 C-19.91155332 40.31504549 -19.90514355 43.19304371 -19.89111328 46.07128906 C-19.87402123 49.75686406 -19.88386512 53.44178363 -19.90183067 57.12733459 C-19.91268209 59.96526001 -19.90921604 62.80303056 -19.9014473 65.64096069 C-19.89944902 66.99970579 -19.90189149 68.35846504 -19.90888596 69.7171936 C-19.91652181 71.61744917 -19.90281573 73.51775417 -19.88818359 75.41796875 C-19.88579681 76.49844482 -19.88341003 77.5789209 -19.88095093 78.69213867 C-19.45273508 81.84837388 -18.69671366 83.22893604 -16.5 85.5 C-14.56255801 86.09086 -14.56255801 86.09086 -12.5 85.9375 C-11.819375 85.93621094 -11.13875 85.93492188 -10.4375 85.93359375 C-7.88117858 85.36151375 -7.10291153 84.56694873 -5.5 82.5 C-4.99520343 79.8931977 -4.99520343 79.8931977 -4.98828125 76.95703125 C-4.95283203 75.88388672 -4.91738281 74.81074219 -4.88085938 73.70507812 C-4.85830078 72.58552734 -4.83574219 71.46597656 -4.8125 70.3125 C-4.77833984 69.18134766 -4.74417969 68.05019531 -4.70898438 66.88476562 C-4.62643686 64.0899426 -4.55730818 61.29543602 -4.5 58.5 C-7.14 58.5 -9.78 58.5 -12.5 58.5 C-12.5 53.55 -12.5 48.6 -12.5 43.5 C-4.25 43.5 4 43.5 12.5 43.5 C12.59214361 49.33576204 12.67168646 55.16897124 12.71972656 61.00488281 C12.73976497 62.98739199 12.76700353 64.96984263 12.80175781 66.95214844 C12.85061954 69.81199641 12.87304673 72.67105881 12.890625 75.53125 C12.91127014 76.40865845 12.93191528 77.28606689 12.95318604 78.19006348 C12.95570913 85.20728494 11.18994396 90.43036216 6.53515625 95.7421875 C5.88417969 96.28101563 5.23320313 96.81984375 4.5625 97.375 C3.91410156 97.92929688 3.26570313 98.48359375 2.59765625 99.0546875 C-4.12452265 103.68635639 -11.67760954 103.14978323 -19.5 102.5 C-26.10119229 100.87793409 -30.83062528 96.07348268 -34.5 90.5 C-36.22756721 86.12227909 -36.7635197 82.42821904 -36.80639648 77.73535156 C-36.81888176 76.76326752 -36.81888176 76.76326752 -36.83161926 75.77154541 C-36.85556982 73.64450946 -36.86447368 71.5177812 -36.87109375 69.390625 C-36.88007297 67.89857906 -36.88919503 66.40653398 -36.89845276 64.91448975 C-36.91490583 61.79095277 -36.92263585 58.66752249 -36.92553711 55.54394531 C-36.93091063 51.56510703 -36.96856235 47.58728893 -37.01428127 43.60873795 C-37.04420613 40.52696179 -37.05126401 37.44542649 -37.05226326 34.36351776 C-37.05643673 32.89804167 -37.06875407 31.43256293 -37.08978081 29.96723175 C-37.21725742 20.31381077 -36.59594947 11.92421576 -29.68577576 4.56890869 C-22.0461148 -2.54112978 -9.63336645 -4.27729041 0 0 Z " transform="translate(1404.5,1148.5)" style="fill: #0071BC;"/><path d="M0 0 C5.28 0 10.56 0 16 0 C16.01458252 2.46307617 16.02916504 4.92615234 16.04418945 7.46386719 C16.09450808 15.59842772 16.16109827 23.73279628 16.23571491 31.86716843 C16.28045805 36.79944986 16.31970546 41.73164794 16.34643555 46.6640625 C16.3724292 51.42340314 16.4128036 56.18242369 16.46318626 60.94156647 C16.47988166 62.75800854 16.49137927 64.574506 16.49761391 66.3910141 C16.50722602 68.93386964 16.53524991 71.47590133 16.56762695 74.01855469 C16.56547432 75.14712387 16.56547432 75.14712387 16.5632782 76.29849243 C16.6206476 79.4806279 16.81446245 81.67461508 18.40592957 84.46563721 C20.36767552 86.35390383 21.30581635 86.54082096 24 86.5 C24.680625 86.5103125 25.36125 86.520625 26.0625 86.53125 C28.93231575 85.74436504 29.52995399 84.57808088 31 82 C31.30342329 79.26499855 31.43759045 76.75390052 31.43237305 74.01855469 C31.4425647 73.2181778 31.45275635 72.4178009 31.46325684 71.59317017 C31.49340519 68.95266741 31.50265548 66.31252732 31.51171875 63.671875 C31.52856409 61.83911939 31.54671414 60.00637534 31.56611633 58.17364502 C31.61363825 53.35355238 31.64343343 48.53350662 31.66955566 43.71325684 C31.69935012 38.7931187 31.74588428 33.87314213 31.79101562 28.953125 C31.87707384 19.30214921 31.94286061 9.65119038 32 0 C37.61 0 43.22 0 49 0 C49.09050338 11.07482863 49.1638327 22.14941014 49.20724869 33.22452545 C49.22809011 38.36759726 49.25634483 43.51040212 49.30175781 48.65332031 C49.3453384 53.62001659 49.36916301 58.58645669 49.37950897 63.55332947 C49.38687844 65.44469737 49.40126928 67.33605185 49.42292023 69.22731018 C49.45211682 71.88426604 49.45594926 74.5401742 49.45410156 77.19726562 C49.47567322 78.36036758 49.47567322 78.36036758 49.49768066 79.54696655 C49.44838772 86.13245027 47.38562462 91.27763711 43.03515625 96.2421875 C42.38417969 96.78101563 41.73320313 97.31984375 41.0625 97.875 C40.41410156 98.42929688 39.76570312 98.98359375 39.09765625 99.5546875 C32.37547735 104.18635639 24.82239046 103.64978323 17 103 C10.39880771 101.37793409 5.66937472 96.57348268 2 91 C-0.00378144 86.14581773 -0.27521771 81.69577788 -0.22705078 76.51611328 C-0.22734283 75.68618362 -0.22763489 74.85625397 -0.22793579 74.00117493 C-0.22654902 71.27411224 -0.21101871 68.54732711 -0.1953125 65.8203125 C-0.19158005 63.92316843 -0.18873417 62.02602242 -0.18673706 60.12887573 C-0.17911891 55.14760978 -0.15948604 50.16646137 -0.1373291 45.1852417 C-0.11683148 40.09746897 -0.10772698 35.00967716 -0.09765625 29.921875 C-0.07623841 19.94785685 -0.04107109 9.97395661 0 0 Z " transform="translate(944,1148)" style="fill: #0070BB;"/><path d="M0 0 C5.69920014 3.49667083 10.66233886 9.03284636 12.5 15.5 C12.72988186 18.77600012 12.68863076 22.03062143 12.625 25.3125 C12.61597656 26.19615234 12.60695313 27.07980469 12.59765625 27.99023438 C12.57419637 30.16027359 12.53832865 32.33017247 12.5 34.5 C6.89 34.5 1.28 34.5 -4.5 34.5 C-4.8125 26.6875 -4.8125 26.6875 -4.88793945 24.23901367 C-5.03979178 21.2939653 -5.16140275 19.01965983 -6.79296875 16.515625 C-8.83615644 15.29999846 -10.12789982 15.06699261 -12.5 15.0625 C-13.5209375 15.03349609 -13.5209375 15.03349609 -14.5625 15.00390625 C-17.38944477 15.7277409 -18.02012794 17.02246392 -19.5 19.5 C-19.95327181 22.37634042 -19.95327181 22.37634042 -19.88818359 25.58203125 C-19.89764008 26.81010498 -19.90709656 28.03817871 -19.9168396 29.3034668 C-19.91146971 30.63981449 -19.90531671 31.97615923 -19.8984375 33.3125 C-19.90045932 34.68725743 -19.90337167 36.06201381 -19.90713501 37.43676758 C-19.91155332 40.31504549 -19.90514355 43.19304371 -19.89111328 46.07128906 C-19.87402123 49.75686406 -19.88386512 53.44178363 -19.90183067 57.12733459 C-19.91268209 59.96526001 -19.90921604 62.80303056 -19.9014473 65.64096069 C-19.89944902 66.99970579 -19.90189149 68.35846504 -19.90888596 69.7171936 C-19.91652181 71.61744917 -19.90281573 73.51775417 -19.88818359 75.41796875 C-19.88579681 76.49844482 -19.88341003 77.5789209 -19.88095093 78.69213867 C-19.45273508 81.84837388 -18.69671366 83.22893604 -16.5 85.5 C-14.56255801 86.09086 -14.56255801 86.09086 -12.5 85.9375 C-11.819375 85.93621094 -11.13875 85.93492188 -10.4375 85.93359375 C-7.92238809 85.37073604 -7.11514012 84.48881072 -5.5 82.5 C-5.0005539 80.48207174 -5.0005539 80.48207174 -4.98828125 78.26953125 C-4.95283203 77.46708984 -4.91738281 76.66464844 -4.88085938 75.83789062 C-4.85830078 75.00451172 -4.83574219 74.17113281 -4.8125 73.3125 C-4.77833984 72.46751953 -4.74417969 71.62253906 -4.70898438 70.75195312 C-4.62658529 68.66843351 -4.56161355 66.58423784 -4.5 64.5 C1.11 64.5 6.72 64.5 12.5 64.5 C12.60872471 67.83422438 12.68766068 71.16484659 12.75 74.5 C12.80027344 75.90185547 12.80027344 75.90185547 12.8515625 77.33203125 C12.95668465 84.84826509 11.52722251 90.04547571 6.53515625 95.7421875 C5.88417969 96.28101563 5.23320313 96.81984375 4.5625 97.375 C3.91410156 97.92929688 3.26570313 98.48359375 2.59765625 99.0546875 C-4.12452265 103.68635639 -11.67760954 103.14978323 -19.5 102.5 C-26.10119229 100.87793409 -30.83062528 96.07348268 -34.5 90.5 C-36.22756721 86.12227909 -36.7635197 82.42821904 -36.80639648 77.73535156 C-36.81888176 76.76326752 -36.81888176 76.76326752 -36.83161926 75.77154541 C-36.85556982 73.64450946 -36.86447368 71.5177812 -36.87109375 69.390625 C-36.88007297 67.89857906 -36.88919503 66.40653398 -36.89845276 64.91448975 C-36.91490583 61.79095277 -36.92263585 58.66752249 -36.92553711 55.54394531 C-36.93091063 51.56510703 -36.96856235 47.58728893 -37.01428127 43.60873795 C-37.04420613 40.52696179 -37.05126401 37.44542649 -37.05226326 34.36351776 C-37.05643673 32.89804167 -37.06875407 31.43256293 -37.08978081 29.96723175 C-37.21725742 20.31381077 -36.59594947 11.92421576 -29.68577576 4.56890869 C-22.0461148 -2.54112978 -9.63336645 -4.27729041 0 0 Z " transform="translate(1756.5,1148.5)" style="fill: #0071BC;"/><path d="M0 0 C6.55298035 3.02445247 10.63836329 8.70528323 13.28125 15.3125 C13.77625 19.2725 13.77625 19.2725 14.28125 23.3125 C6.36125 24.7975 6.36125 24.7975 -1.71875 26.3125 C-2.43489583 24.32682292 -3.15104167 22.34114583 -3.8671875 20.35546875 C-4.7453269 18.06476641 -4.7453269 18.06476641 -6.71875 15.3125 C-11.33350671 14.7039641 -11.33350671 14.7039641 -15.37890625 16.58203125 C-17.89549894 19.83232444 -18.01523319 23.30380018 -17.71875 27.3125 C-14.85753873 36.350076 -8.67677232 41.77444505 -1.71875 47.75 C6.68961897 55.08496016 13.355221 62.77628028 14.76171875 74.22265625 C15.2008513 82.34228431 14.49429794 89.74006874 9.28125 96.3125 C3.20750973 102.06719166 -1.7305428 103.50608058 -10.03125 103.5625 C-10.77826172 103.583125 -11.52527344 103.60375 -12.29492188 103.625 C-18.47300593 103.66839304 -22.50071875 102.20594131 -27.28125 98.125 C-33.79628474 90.60765222 -37.13336539 83.47057716 -36.71875 73.3125 C-31.75801578 71.98963754 -26.80763488 72.22356803 -21.71875 72.3125 C-21.54859375 72.90417969 -21.3784375 73.49585938 -21.203125 74.10546875 C-19.15875793 80.91086172 -19.15875793 80.91086172 -14.71875 86.3125 C-11.21875 87.0625 -11.21875 87.0625 -7.71875 86.3125 C-4.25543461 83.57830364 -2.86962118 81.56975979 -2.34375 77.1875 C-3.40183601 66.25394461 -13.94512086 58.39514569 -21.90625 51.8125 C-29.29612318 45.48688847 -34.59053708 37.32616131 -35.46875 27.5625 C-36.02450655 19.33730303 -35.05879863 12.8392261 -29.71875 6.3125 C-21.46391225 -1.67605266 -10.98129148 -2.77687831 0 0 Z " transform="translate(1917.71875,1147.6875)" style="fill: #0070BC;"/><path d="M0 0 C5.28 0 10.56 0 16 0 C16 28.71 16 57.42 16 87 C24.58 87 33.16 87 42 87 C42 91.95 42 96.9 42 102 C28.14 102 14.28 102 0 102 C0 68.34 0 34.68 0 0 Z " transform="translate(1565,1148)" style="fill: #0071BC;"/><path d="M0 0 C5.28 0 10.56 0 16 0 C16 28.71 16 57.42 16 87 C24.58 87 33.16 87 42 87 C42 91.95 42 96.9 42 102 C28.14 102 14.28 102 0 102 C0 68.34 0 34.68 0 0 Z " transform="translate(1076,1148)" style="fill: #0071BC;"/><path d="M0 0 C21.39719388 0 21.39719388 0 28.3046875 6.8515625 C35.2189987 15.61393844 35.23478377 27.33595831 34 38 C32.24201653 45.35482879 29.0188299 50.91004084 22.75 55.25 C15.66529424 58.97247252 7.81586705 58 0 58 C0 38.86 0 19.72 0 0 Z " transform="translate(2148,999)" style="fill: #000000;"/><path d="M0 0 C5.28 0 10.56 0 16 0 C16 33.66 16 67.32 16 102 C10.72 102 5.44 102 0 102 C0 68.34 0 34.68 0 0 Z " transform="translate(1231,1148)" style="fill: #0071BC;"/><path d="M0 0 C5.28 0 10.56 0 16 0 C16 33.66 16 67.32 16 102 C10.72 102 5.44 102 0 102 C0 68.34 0 34.68 0 0 Z " transform="translate(1026,1148)" style="fill: #0071BC;"/><path d="M0 0 C20.03050239 0 20.03050239 0 26.5625 6.3203125 C31.8163288 12.45929724 32.13363019 20.20490552 32 28 C31.05571051 35.65516241 29.08723229 41.98151842 23 47 C16.09086966 50.89745814 7.61838176 50 0 50 C0 33.5 0 17 0 0 Z " transform="translate(2148,920)" style="fill: #000000;"/><path d="M0 0 C9.44444444 0 9.44444444 0 15 3 C17.28588467 6.42882701 17.26525359 7.73143117 17.30639648 11.76904297 C17.32238388 12.95392303 17.33837128 14.1388031 17.35484314 15.35958862 C17.36288719 17.28147507 17.36288719 17.28147507 17.37109375 19.2421875 C17.38463646 21.21567673 17.38463646 21.21567673 17.39845276 23.22903442 C17.41493887 26.01485648 17.42264207 28.80055843 17.42553711 31.58642578 C17.43091923 35.15000008 17.46859089 38.71243984 17.51428127 42.27569389 C17.55124422 45.68118669 17.55256753 49.08650089 17.55859375 52.4921875 C17.57812607 53.76939667 17.59765839 55.04660583 17.61778259 56.36251831 C17.56753879 66.20988679 17.56753879 66.20988679 14.57836914 69.29345703 C9.34067579 72.76012463 6.86205709 72 0 72 C0 48.24 0 24.48 0 0 Z " transform="translate(1165,1163)" style="fill: #000000;"/><path d="M0 0 C0.99 0.01933594 0.99 0.01933594 2 0.0390625 C2.66 0.02617188 3.32 0.01328125 4 0 C7.11930559 1.03570693 8.19792359 2.97634483 10 5.6640625 C10.50793457 8.58544922 10.50793457 8.58544922 10.51757812 11.84375 C10.53018677 13.06852051 10.54279541 14.29329102 10.55578613 15.55517578 C10.54768921 16.8698584 10.53959229 18.18454102 10.53125 19.5390625 C10.53394691 20.90999629 10.53783099 22.2809282 10.54284668 23.65185547 C10.54873254 26.52004269 10.54020921 29.38773039 10.52148438 32.25585938 C10.4986942 35.92467002 10.51182235 39.59231014 10.53577423 43.26107788 C10.55025761 46.09050245 10.54561485 48.91965141 10.53526306 51.74908447 C10.53131298 53.75704716 10.54341962 55.76502073 10.55578613 57.77294922 C10.54317749 58.99771973 10.53056885 60.22249023 10.51757812 61.484375 C10.51280457 63.09723389 10.51280457 63.09723389 10.50793457 64.74267578 C9.8725905 68.39685853 8.62204608 70.07765361 6 72.6640625 C1.88360883 73.41249726 -0.12367377 73.21006214 -3.68334961 70.9921875 C-7.8737044 66.4900335 -6.68661317 59.5112745 -6.62890625 53.7890625 C-6.62973558 52.4181296 -6.63219736 51.0471968 -6.63621521 49.67626953 C-6.63906872 46.80796248 -6.62441791 43.94043824 -6.59692383 41.07226562 C-6.56283995 37.40341544 -6.56886245 33.73596431 -6.5875864 30.06704712 C-6.59817655 27.23759385 -6.58920069 24.40846378 -6.57420158 21.57904053 C-6.56652867 19.57109882 -6.57386085 17.56311786 -6.58143616 15.55517578 C-6.56559982 14.33040527 -6.54976349 13.10563477 -6.53344727 11.84375 C-6.52724869 10.76851074 -6.52105011 9.69327148 -6.5146637 8.58544922 C-5.81175802 4.59554412 -3.99877396 1.32771792 0 0 Z " transform="translate(1660,1162.3359375)" style="fill: #000000;"/><path d="M0 0 C0.33 0 0.66 0 1 0 C4.3 23.76 7.6 47.52 11 72 C4.07 72 -2.86 72 -10 72 C-8.41674885 56.55080194 -6.18570719 41.23034919 -3.875 25.875 C-3.49839095 23.35551462 -3.1220867 20.83598365 -2.74609375 18.31640625 C-1.83423724 12.21040834 -0.91863991 6.10498085 0 0 Z " transform="translate(2037,940)" style="fill: #000000;"/><path d="M0 0 C0.33 0 0.66 0 1 0 C4.3 23.76 7.6 47.52 11 72 C4.07 72 -2.86 72 -10 72 C-8.41674885 56.55080194 -6.18570719 41.23034919 -3.875 25.875 C-3.49839095 23.35551462 -3.1220867 20.83598365 -2.74609375 18.31640625 C-1.83423724 12.21040834 -0.91863991 6.10498085 0 0 Z " transform="translate(1653,940)" style="fill: #000000;"/><path d="M0 0 C0.33 0 0.66 0 1 0 C4.3 23.76 7.6 47.52 11 72 C4.07 72 -2.86 72 -10 72 C-8.41674885 56.55080194 -6.18570719 41.23034919 -3.875 25.875 C-3.49839095 23.35551462 -3.1220867 20.83598365 -2.74609375 18.31640625 C-1.83423724 12.21040834 -0.91863991 6.10498085 0 0 Z " transform="translate(993,940)" style="fill: #000000;"/><path d="M0 0 C11 1 11 1 14.125 3.4375 C16.97744333 7.33583922 17.18446468 9.49019272 17.25 14.3125 C17.27578125 15.44300781 17.3015625 16.57351563 17.328125 17.73828125 C16.80599923 22.92846008 14.62689179 25.37310821 11 29 C7.37 29.33 3.74 29.66 0 30 C0 20.1 0 10.2 0 0 Z " transform="translate(1496,1205)" style="fill: #000000;"/><path d="M0 0 C11 1 11 1 14.125 3.4375 C16.97744333 7.33583922 17.18446468 9.49019272 17.25 14.3125 C17.27578125 15.44300781 17.3015625 16.57351563 17.328125 17.73828125 C16.80599923 22.92846008 14.62689179 25.37310821 11 29 C7.37 29.33 3.74 29.66 0 30 C0 20.1 0 10.2 0 0 Z " transform="translate(875,1205)" style="fill: #000000;"/><path d="M0 0 C10 1 10 1 13.0625 3.4375 C16.6549234 8.18876965 16.47375554 12.18085181 16 18 C14.63855172 22.4046856 13.71695188 23.59417818 9.6875 25.875 C6 27 6 27 0 27 C0 18.09 0 9.18 0 0 Z " transform="translate(1496,1163)" style="fill: #000000;"/><path d="M0 0 C10 1 10 1 13.0625 3.4375 C16.6549234 8.18876965 16.47375554 12.18085181 16 18 C14.63855172 22.4046856 13.71695188 23.59417818 9.6875 25.875 C6 27 6 27 0 27 C0 18.09 0 9.18 0 0 Z " transform="translate(875,1163)" style="fill: #000000;"/></svg>