<?xml version="1.0" standalone="no"?>
<!DOCTYPE svg PUBLIC "-//W3C//DTD SVG 20010904//EN"
 "http://www.w3.org/TR/2001/REC-SVG-20010904/DTD/svg10.dtd">
<svg version="1.0" xmlns="http://www.w3.org/2000/svg"
 width="300.000000pt" height="202.000000pt" viewBox="0 0 300.000000 202.000000"
 preserveAspectRatio="xMidYMid meet">
<metadata>
Created by potrace 1.10, written by Peter Selinger 2001-2011
</metadata>
<g transform="translate(0.000000,202.000000) scale(0.100000,-0.100000)"
fill="#ffffff" stroke="none">
<path d="M1473 1600 c-3 -11 -6 -20 -7 -20 -1 0 -72 -27 -156 -60 -85 -33
-161 -58 -168 -55 -8 3 -25 2 -39 -1 -22 -6 -24 -11 -20 -38 4 -24 -11 -67
-62 -180 -62 -140 -68 -150 -99 -158 -17 -5 -40 -20 -49 -34 -15 -24 -15 -29
-2 -53 8 -14 30 -31 49 -37 33 -11 39 -21 102 -160 43 -95 67 -160 65 -179 -2
-29 -1 -30 43 -31 33 0 77 -16 170 -61 109 -52 127 -64 140 -94 10 -22 23 -35
38 -37 29 -4 62 24 62 52 0 18 23 30 146 78 137 53 148 56 170 42 33 -23 83
-14 107 18 20 26 20 27 0 65 l-20 38 53 125 c55 127 60 140 47 140 -5 0 -33
-59 -63 -130 -71 -168 -80 -169 -127 -21 -28 93 -30 106 -18 125 13 19 13 25
-1 44 -8 12 -24 22 -34 22 -12 0 -29 17 -47 49 -15 27 -31 47 -35 45 -5 -3 4
-28 18 -55 42 -77 35 -84 -149 -152 -85 -31 -158 -57 -162 -57 -7 0 27 36 205
221 31 32 57 49 80 53 45 8 284 -54 288 -75 2 -9 -18 -21 -55 -34 -31 -12 -58
-26 -61 -33 -2 -6 23 -1 59 13 55 22 64 23 82 10 63 -44 143 19 102 81 -9 13
-29 27 -44 30 -31 7 -31 5 -92 156 -46 112 -46 114 -54 106 -3 -3 17 -61 45
-128 27 -67 50 -125 50 -129 0 -3 -7 -14 -14 -23 -12 -17 -21 -16 -147 17
-174 45 -174 45 -274 283 -43 101 -75 185 -73 187 2 2 73 -25 158 -60 148 -61
155 -65 167 -100 12 -35 11 -38 -49 -131 -33 -52 -58 -98 -54 -101 7 -8 0 -17
71 95 43 68 64 92 80 92 11 0 31 7 43 16 18 12 22 24 20 52 -4 47 -43 65 -86
41 -26 -14 -34 -12 -177 48 -85 36 -156 71 -164 83 -17 26 -51 26 -58 0z m-54
-166 c-33 -70 -57 -129 -54 -132 8 -8 12 -2 70 124 30 65 58 120 62 121 8 3
176 -388 169 -394 -2 -2 -69 13 -148 33 -143 36 -145 37 -157 70 -13 36 -43
51 -83 41 -18 -5 -37 7 -85 51 -61 55 -62 58 -45 77 15 18 289 133 319 134 7
1 -15 -55 -48 -125z m501 8 c0 -15 2 -15 10 -2 8 12 10 9 10 -11 0 -17 -8 -29
-23 -36 -30 -14 -52 -1 -44 26 3 12 1 19 -4 15 -5 -3 -9 -1 -9 5 0 10 13 16
41 18 12 1 19 -5 19 -15z m-680 -183 c0 -38 -18 -53 -132 -110 -66 -33 -117
-63 -114 -66 3 -3 59 20 124 52 117 56 119 57 149 41 l31 -16 7 -150 c4 -83
12 -153 17 -156 10 -6 3 232 -8 283 -3 15 5 28 27 45 l30 24 102 -27 c203 -53
189 -47 176 -71 -7 -12 -72 -86 -146 -165 -115 -122 -138 -142 -158 -137 -13
3 -33 1 -44 -6 -19 -9 -33 -4 -101 37 -111 67 -111 75 -21 203 38 55 66 102
62 105 -5 2 -40 -40 -77 -95 -38 -55 -75 -100 -83 -100 -7 0 -29 9 -47 21 -27
16 -34 27 -34 52 0 17 -7 38 -15 47 -13 15 -9 29 41 141 31 68 62 139 70 158
l15 35 64 -64 c36 -36 65 -72 65 -81z m87 13 c6 -4 14 -19 18 -33 5 -21 2 -30
-15 -42 -37 -26 -81 3 -73 46 4 19 10 23 36 20 30 -2 30 -2 7 6 -21 8 -22 9
-5 10 11 0 25 -3 32 -7z m753 -202 c0 -5 6 -7 13 -4 10 4 13 -5 13 -33 -1 -36
-2 -38 -35 -38 -43 0 -60 23 -43 59 11 25 52 38 52 16z m-1115 -10 c-3 -5 -1
-10 4 -10 6 0 11 -13 11 -30 0 -24 -5 -31 -27 -36 -16 -5 -28 -3 -31 4 -2 6
-9 9 -16 6 -20 -8 -17 48 3 63 19 15 65 17 56 3z m72 -147 c-1 -39 17 -56 51
-48 17 4 46 -8 102 -42 65 -40 80 -52 80 -73 0 -22 -10 -31 -65 -58 -36 -18
-68 -32 -70 -32 -3 0 -5 36 -5 81 0 51 -4 78 -10 74 -5 -3 -10 -38 -10 -77 0
-39 -3 -68 -6 -65 -15 15 -130 284 -126 295 3 9 11 8 32 -4 22 -14 28 -24 27
-51z m781 39 c3 -18 -1 -22 -23 -22 -21 0 -26 4 -21 16 3 9 6 20 6 26 0 20 35
2 38 -20z m-725 -42 c3 -11 2 -20 -3 -20 -12 0 -31 26 -23 33 11 12 21 7 26
-13z m536 -195 c-126 -214 -139 -227 -166 -175 -46 86 -76 169 -76 210 l0 44
179 67 c98 36 180 65 182 63 2 -1 -51 -95 -119 -209z m209 83 c30 -101 31
-103 12 -123 -10 -11 -20 -31 -22 -45 -3 -21 -21 -31 -148 -82 -80 -32 -146
-58 -147 -58 -12 0 14 49 118 225 103 174 124 203 138 195 10 -5 30 -49 49
-112z m-471 -50 c3 -29 -1 -37 -19 -41 -30 -8 -55 8 -54 35 2 36 15 49 44 45
23 -3 27 -9 29 -39z m-20 -64 c28 6 30 4 68 -86 22 -51 42 -96 44 -101 2 -5
-7 -6 -20 -2 -38 11 -289 128 -295 136 -3 5 26 24 63 42 62 32 69 33 90 20 14
-9 33 -12 50 -9z m573 -21 c0 -15 2 -16 10 -3 5 8 10 13 11 10 10 -62 8 -71
-16 -82 -50 -22 -97 38 -59 76 21 22 54 21 54 -1z m-405 -203 c0 -18 -6 -26
-23 -28 -13 -2 -25 3 -28 12 -10 26 4 48 28 44 17 -2 23 -10 23 -28z"/>
</g>
</svg>
